<svg xmlns="http://www.w3.org/2000/svg" version="1.1" xmlns:xlink="http://www.w3.org/1999/xlink" xmlns:svgjs="http://svgjs.com/svgjs" width="512" height="512" x="0" y="0" viewBox="0 0 24 24" style="enable-background:new 0 0 512 512" xml:space="preserve" class=""><g><path fill="#ff8a71" d="M20 24H4c-2.2 0-4-1.8-4-4V4c0-2.2 1.8-4 4-4h16c2.2 0 4 1.8 4 4v16c0 2.2-1.8 4-4 4z" data-original="#f09d3e" class=""></path><path fill="#ffffff" d="M9 19c-.3 0-.5-.1-.7-.3l-6-6c-.4-.4-.4-1 0-1.4s1-.4 1.4 0L9 16.6 20.3 5.3c.4-.4 1-.4 1.4 0s.4 1 0 1.4l-12 12c-.2.2-.4.3-.7.3z" data-original="#ffffff" class=""></path></g></svg>