<svg xmlns="http://www.w3.org/2000/svg" version="1.1" xmlns:xlink="http://www.w3.org/1999/xlink" xmlns:svgjs="http://svgjs.com/svgjs" width="512" height="512" x="0" y="0" viewBox="0 0 128 128" style="enable-background:new 0 0 512 512" xml:space="preserve" class=""><g><path fill="#ff8a71" d="M109 124H19c-8.28 0-15-6.72-15-15V19c0-8.28 6.72-15 15-15h90c8.28 0 15 6.72 15 15v90c0 8.28-6.72 15-15 15z" data-original="#bde321" class=""></path><path fill="#ff8a71" d="m86.77 39.78-30 30-15.54-15.54a8.643 8.643 0 0 0-12.23 0 8.643 8.643 0 0 0 0 12.23l21.82 21.82a8.408 8.408 0 0 0 11.9 0L99 52.01a8.643 8.643 0 0 0 0-12.23 8.643 8.643 0 0 0-12.23 0z" data-original="#fffcee" class=""></path></g></svg>